<?xml version="1.0" encoding="UTF-8"?>
<svg version="1.1" xmlns="http://www.w3.org/2000/svg" width="1266" height="340">
<path d="M0 0 C12.87 0 25.74 0 39 0 C43.0620128 4.0620128 45.40763669 7.08802431 47.85546875 12.0390625 C48.19861115 12.71296021 48.54175354 13.38685791 48.89529419 14.08117676 C50.00153424 16.25810171 51.09440974 18.44144745 52.1875 20.625 C52.95293778 22.13580279 53.71946408 23.64605456 54.48706055 25.15576172 C55.99187606 28.116442 57.49295565 31.07896382 58.99121094 34.04296875 C61.38188969 38.76343504 63.83253881 43.45088598 66.3125 48.125 C67.07967409 49.57539021 67.84660135 51.025911 68.61328125 52.4765625 C68.99436035 53.1974707 69.37543945 53.91837891 69.76806641 54.66113281 C72.19368657 59.26625393 74.59502057 63.88407666 77 68.5 C80.71715436 75.63135059 84.44185466 82.75856785 88.1875 89.875 C88.58904297 90.63828613 88.99058594 91.40157227 89.40429688 92.18798828 C91.44252223 96.05813081 93.49023657 99.92294105 95.55078125 103.78125 C95.96239502 104.55355957 96.37400879 105.32586914 96.7980957 106.12158203 C97.57431443 107.57689359 98.35264856 109.03107974 99.13354492 110.48388672 C104 119.61257637 104 119.61257637 104 124 C104.66 124 105.32 124 106 124 C106.12511963 123.26604004 106.25023926 122.53208008 106.37915039 121.77587891 C106.97149682 119.12744047 107.76767398 117.02618477 108.93359375 114.5859375 C109.3296582 113.75304199 109.72572266 112.92014648 110.13378906 112.06201172 C110.56401367 111.17529785 110.99423828 110.28858398 111.4375 109.375 C111.88706055 108.44059082 112.33662109 107.50618164 112.79980469 106.54345703 C116.45048795 99.01153444 120.29759556 91.59628419 124.234375 84.2109375 C127.54254053 78.00142798 130.76814634 71.74946474 134 65.5 C138.35479205 57.08717485 142.7252999 48.68370465 147.15869141 40.31201172 C149.66909488 35.56146107 152.13758578 30.79059859 154.5859375 26.0078125 C155.53553355 24.15798104 156.48550669 22.30834363 157.43554688 20.45874023 C158.3543375 18.66533161 159.2670839 16.86883051 160.1796875 15.07226562 C160.746875 13.96818359 161.3140625 12.86410156 161.8984375 11.7265625 C162.65133057 10.25050537 162.65133057 10.25050537 163.41943359 8.74462891 C167.4262336 1.7868832 167.4262336 1.7868832 171 0 C183.54 0 196.08 0 209 0 C209 62.7 209 125.4 209 190 C197.45 190 185.9 190 174 190 C173.67 148.09 173.34 106.18 173 63 C167.39 73.89 161.78 84.78 156 96 C150.0625 106.875 150.0625 106.875 147.24609375 111.9765625 C142.06947179 121.47620563 137.21306798 131.15020968 132.31665039 140.79638672 C120.33923036 164.33038482 120.33923036 164.33038482 113 168 C110.40024068 168.17778623 107.85175193 168.27753022 105.25 168.3125 C104.54617188 168.34150391 103.84234375 168.37050781 103.1171875 168.40039062 C97.93220039 168.46303452 95.00070327 167.5580025 91 164 C85.27303218 157.11564496 81.55530493 148.57350628 77.54248047 140.62426758 C75.54885268 136.67661773 73.53637769 132.7386101 71.5234375 128.80078125 C71.1278363 128.02630646 70.73223511 127.25183167 70.324646 126.45388794 C67.31615314 120.57956735 64.20337156 114.77053145 61 109 C54.68421418 97.61363456 48.79078715 86.01061486 42.87695312 74.41210938 C42.4952446 73.6649617 42.11353607 72.91781403 41.72026062 72.14802551 C40.99551613 70.72891611 40.27247735 69.30893399 39.55134583 67.88798523 C38.07736979 64.73847485 38.07736979 64.73847485 36 62 C36 104.24 36 146.48 36 190 C24.12 190 12.24 190 0 190 C0 127.3 0 64.6 0 0 Z M174 59 C175 61 175 61 175 61 Z " fill="#FFFFFF" transform="translate(708,2)"/>
<path d="M0 0 C99.60176991 0 99.60176991 0 119 16 C119.64453125 16.52078125 120.2890625 17.0415625 120.953125 17.578125 C130.48184573 26.11254444 134.15671787 39.01540148 135.31640625 51.37109375 C135.85625565 66.71326535 131.6544276 80.94333272 121.67578125 92.75 C116.38200188 98.33464637 110.81021876 102.45447374 104 106 C103.35289062 106.33902344 102.70578125 106.67804688 102.0390625 107.02734375 C100.70395206 107.70743522 99.35411305 108.35857803 98 109 C98.73863281 109.71542969 99.47726562 110.43085937 100.23828125 111.16796875 C107.87673471 119.00089486 113.56961273 128.32604966 119.26953125 137.59765625 C122.24685575 142.42909671 125.33637702 147.18487523 128.4375 151.9375 C128.98510986 152.77708252 129.53271973 153.61666504 130.09692383 154.48168945 C131.19464457 156.16434247 132.29254355 157.84687923 133.390625 159.52929688 C136.37601156 164.11244494 139.33993161 168.70949899 142.30371094 173.30664062 C145.16021752 177.72920505 148.07009478 182.10934769 151.07421875 186.43359375 C152 188 152 188 152 190 C146.59231529 190.07455448 141.18493452 190.12879227 135.77685547 190.16479492 C133.93988834 190.17981496 132.10295666 190.20023709 130.26611328 190.22631836 C127.61481946 190.26300202 124.96400268 190.27979438 122.3125 190.29296875 C121.50071289 190.30845261 120.68892578 190.32393646 119.85253906 190.33988953 C113.5530825 190.34171906 107.55414363 189.51196511 102.87109375 184.90625 C102.25363281 183.9471875 101.63617187 182.988125 101 182 C100.5683252 181.3296875 100.13665039 180.659375 99.69189453 179.96875 C98.12062571 177.49565955 96.58913218 175.00087815 95.0625 172.5 C93.89849438 170.60673586 92.73443024 168.7135077 91.5703125 166.8203125 C90.97766602 165.85383789 90.38501953 164.88736328 89.77441406 163.89160156 C85.41329791 156.78468635 81.02119947 149.69689867 76.62158203 142.61376953 C75.51629226 140.83219285 74.41319082 139.0492571 73.31201172 137.26513672 C71.67241214 134.6104342 70.02466376 131.96095696 68.375 129.3125 C67.87798584 128.50409668 67.38097168 127.69569336 66.86889648 126.86279297 C66.17195679 125.74928467 66.17195679 125.74928467 65.4609375 124.61328125 C65.05665527 123.96141846 64.65237305 123.30955566 64.23583984 122.63793945 C62.92260445 120.70999491 62.92260445 120.70999491 60 119 C53.4 118.67 46.8 118.34 40 118 C40 141.76 40 165.52 40 190 C26.8 190 13.6 190 0 190 C0 127.3 0 64.6 0 0 Z M40 30 C40 49.47 40 68.94 40 89 C66.29850686 90.33276089 66.29850686 90.33276089 88 80 C93.91062225 73.93383506 95.95774628 66.49663754 96.25 58.25 C96.11732875 50.12087067 93.83407168 43.76179917 88.22265625 37.79296875 C74.81098536 26.97406377 55.75733516 30 40 30 Z " fill="#FFFFFF" transform="translate(460,2)"/>
<path d="M0 0 C13.2 0 26.4 0 40 0 C40.0093457 3.68824951 40.01869141 7.37649902 40.02832031 11.17651367 C40.06216317 23.39419032 40.11755407 35.61168137 40.18390274 47.82921886 C40.22358882 55.23307308 40.25603394 62.63682261 40.27099609 70.04077148 C40.28406708 76.49955593 40.31116908 82.95810904 40.35461307 89.41676313 C40.37710666 92.83164816 40.39291805 96.24624916 40.39188385 99.66121483 C40.39426532 103.48827671 40.42144244 107.31444994 40.45410156 111.14135742 C40.4490712 112.25411041 40.44404083 113.3668634 40.43885803 114.51333618 C40.59718824 126.59026956 43.69303719 137.9557328 52 147 C59.96782712 153.87534625 68.97776573 156.57154804 79.375 156.4375 C80.20427002 156.42992676 81.03354004 156.42235352 81.88793945 156.41455078 C91.98521145 156.14423788 100.69715944 153.19048917 108 146 C117.59038237 134.60724879 119.12960174 121.58989191 119.20532227 107.28149414 C119.21522186 106.11979706 119.22512146 104.95809998 119.23532104 103.76119995 C119.26681295 99.93587251 119.29164475 96.11053268 119.31640625 92.28515625 C119.33698641 89.62714729 119.35793683 86.96914384 119.37937927 84.31114197 C119.42916566 78.03923158 119.47415623 71.76729643 119.51740164 65.4953379 C119.56689463 58.35138869 119.62176777 51.20748392 119.67708123 44.06357777 C119.79068534 29.37575962 119.89686072 14.6878957 120 0 C133.2 0 146.4 0 160 0 C160.04529826 15.27387662 160.08207683 30.54772257 160.10362434 45.82164955 C160.113899 52.91497848 160.12788564 60.00826245 160.15087891 67.1015625 C160.17093035 73.29032181 160.18374406 79.47904852 160.18817699 85.66783941 C160.19076466 88.93909395 160.19784571 92.21023457 160.21146011 95.48146439 C160.31525448 121.46932984 159.09176143 146.48356952 141 167 C140.34386719 167.75023437 139.68773437 168.50046875 139.01171875 169.2734375 C124.68549132 184.62109614 104.47699571 191.04794576 83.98828125 192.1640625 C60.83519764 192.75566278 38.57193388 186.55668348 21.30419922 170.53833008 C7.84156136 157.29168227 0.18314501 138.29991882 -0.36076355 119.5329895 C-0.36928172 117.30341188 -0.36189702 115.07373023 -0.34057617 112.84423828 C-0.34101425 111.61324402 -0.34145233 110.38224976 -0.34190369 109.11395264 C-0.34019085 105.78821319 -0.32530875 102.46305589 -0.30418181 99.13741922 C-0.28522876 95.64345983 -0.28365009 92.14948993 -0.28010559 88.65548706 C-0.27083915 82.06142737 -0.24629988 75.46751968 -0.21605712 68.87352645 C-0.18234325 61.35704231 -0.16598473 53.8405503 -0.15097082 46.32400918 C-0.11974438 30.88257018 -0.06480139 15.44134015 0 0 Z " fill="#FFFFFF" transform="translate(954,2)"/>
<path d="M0 0 C2.0486578 1.58057637 4.02218701 3.18318821 5.93359375 4.92578125 C4.18228878 9.67797096 1.85656526 14.08152017 -0.50390625 18.55078125 C-1.09655273 19.69546875 -1.09655273 19.69546875 -1.70117188 20.86328125 C-2.2822168 21.96542969 -2.2822168 21.96542969 -2.875 23.08984375 C-3.22361084 23.7545166 -3.57222168 24.41918945 -3.93139648 25.10400391 C-5.1506248 27.06095845 -6.27812218 28.46683881 -8.06640625 29.92578125 C-15.46673102 31.28250746 -20.18844947 28.53097691 -26.48974609 25.00073242 C-37.66863155 18.74418517 -49.56294521 16.83360139 -62.20703125 19.6171875 C-68.74407806 21.95604107 -71.96749451 25.22769866 -75.37890625 31.23828125 C-76.69095858 36.36721307 -76.65192662 41.05943507 -75.06640625 46.11328125 C-67.89918046 56.19219252 -54.78323727 59.44871988 -43.57836914 63.15795898 C-6.27650776 75.51187984 -6.27650776 75.51187984 3.99609375 93.42578125 C10.92914745 107.65678622 10.65798356 123.94559862 5.93359375 138.92578125 C2.17385729 148.41172881 -2.76397935 155.83387477 -10.06640625 162.92578125 C-10.60652344 163.48652344 -11.14664062 164.04726562 -11.703125 164.625 C-24.62447592 177.02559119 -43.96213534 180.30599059 -61.16015625 180.140625 C-83.48081394 178.91298883 -106.19066679 171.11021565 -122.06640625 154.92578125 C-119.58961452 149.54145141 -116.67718599 144.54624526 -113.50390625 139.55078125 C-113.115979 138.93187012 -112.72805176 138.31295898 -112.32836914 137.67529297 C-110.42073204 134.71076041 -109.04028138 132.90836467 -106.06640625 130.92578125 C-98.64799374 129.45208036 -93.53664996 132.34027459 -87.44140625 136.23828125 C-73.82726012 144.66556819 -60.98835826 148.55129414 -44.875 145.27734375 C-38.26142421 142.91463118 -33.96351287 138.87699643 -30.93359375 132.56640625 C-28.96725663 126.57882115 -29.04558283 119.4160282 -31.44140625 113.55078125 C-37.16180777 103.84221247 -52.13535234 100.37455285 -62.26098633 97.49267578 C-79.62079332 92.54793123 -97.13548465 87.01748124 -107.44140625 71.11328125 C-108.35553769 69.40447873 -109.23119161 67.6745119 -110.06640625 65.92578125 C-110.68515625 64.69214844 -110.68515625 64.69214844 -111.31640625 63.43359375 C-116.09275961 51.99024715 -116.08444443 35.91488813 -112.44140625 24.11328125 C-111.32421875 21.41796875 -111.32421875 21.41796875 -110.06640625 18.92578125 C-109.63070313 18.06210937 -109.195 17.1984375 -108.74609375 16.30859375 C-100.39923191 1.30248694 -87.52774857 -7.79265747 -71.15332031 -12.640625 C-47.39897339 -18.7064865 -20.20909867 -13.67010369 0 0 Z " fill="#FFFFFF" transform="translate(1257.06640625,14.07421875)"/>
<path d="M0 0 C5.32014516 -0.12383064 10.63944714 -0.21444676 15.96069336 -0.2746582 C17.76976132 -0.2997639 19.57872822 -0.33385595 21.38745117 -0.37719727 C23.99162751 -0.43802579 26.59446031 -0.46624809 29.19921875 -0.48828125 C30.00461594 -0.51408768 30.81001312 -0.5398941 31.63981628 -0.56648254 C35.8910154 -0.56859388 37.48866508 -0.41023074 40.92016602 2.34277344 C43.24048495 5.30724712 45.30996855 8.3426661 47.25 11.5625 C47.65839111 12.22725342 48.06678223 12.89200684 48.48754883 13.5769043 C50.00034458 16.04609328 51.50044788 18.52274515 53 21 C54.7671361 23.91098168 56.53454575 26.82179696 58.30209351 29.73252869 C60.15343 32.78212008 62.00260073 35.83297668 63.84667969 38.88696289 C68.137666 45.98581103 72.51054559 53.02475902 77 60 C77.44166504 59.27224365 77.88333008 58.5444873 78.33837891 57.79467773 C78.96147949 56.76802002 79.58458008 55.7413623 80.2265625 54.68359375 C80.56611465 54.12408524 80.90566681 53.56457672 81.25550842 52.9881134 C83.1522588 49.86294181 85.04974897 46.73822264 86.94848633 43.61425781 C90.65449471 37.51599671 94.35556672 31.41502792 98.03515625 25.30078125 C98.65374512 24.27605713 99.27233398 23.25133301 99.90966797 22.19555664 C101.06182634 20.28663179 102.21079394 18.37577599 103.35595703 16.46264648 C110.7290418 4.2709582 110.7290418 4.2709582 115 0 C117.73894085 -0.08858646 120.4525327 -0.11523479 123.19140625 -0.09765625 C124.01124496 -0.0962413 124.83108368 -0.09482635 125.67576599 -0.09336853 C128.30471382 -0.08775289 130.93357773 -0.07519779 133.5625 -0.0625 C135.34049357 -0.05748701 137.11848846 -0.05292376 138.89648438 -0.04882812 C143.26435545 -0.03777839 147.63216348 -0.02050331 152 0 C148.59628789 6.37991142 144.84373505 12.40325515 140.765625 18.37109375 C140.17409134 19.24342148 139.58255768 20.11574921 138.97309875 21.01451111 C137.71528351 22.86919006 136.4559988 24.72287319 135.19534302 26.57562256 C132.57749846 30.42684583 129.9729547 34.28698851 127.36769104 38.14672852 C122.77974849 44.94356342 118.1859212 51.73596229 113.55502319 58.50361633 C112.29466236 60.35095473 111.04234361 62.20339957 109.79394531 64.05883789 C108.3430339 66.21504464 106.87822297 68.3619855 105.39746094 70.49780273 C104.77258789 71.43438721 104.14771484 72.37097168 103.50390625 73.3359375 C102.96580322 74.12532715 102.4277002 74.9147168 101.87329102 75.72802734 C100.73463506 78.01884286 100.73463506 78.01884286 101.70019531 80.5402832 C102.8584883 82.73220692 104.01418132 84.89583533 105.29296875 87.01953125 C105.75050537 87.78193115 106.20804199 88.54433105 106.67944336 89.32983398 C107.17710205 90.14911377 107.67476074 90.96839355 108.1875 91.8125 C108.71287354 92.68269775 109.23824707 93.55289551 109.77954102 94.44946289 C115.1825545 103.36463218 120.71704101 112.19740361 126.2578125 121.02734375 C130.33699659 127.52939892 134.37811493 134.05464297 138.40869141 140.58691406 C140.92927351 144.66875814 143.46230102 148.74135489 146.03125 152.79296875 C146.50199951 153.53740234 146.97274902 154.28183594 147.45776367 155.04882812 C148.33689822 156.43668514 149.21966507 157.82225045 150.10668945 159.20507812 C153 163.77800313 153 163.77800313 153 166 C147.67982385 166.09906509 142.36018753 166.17156072 137.03930664 166.21972656 C135.2302922 166.23981053 133.42134243 166.26708341 131.61254883 166.30175781 C129.00846379 166.35041892 126.40523885 166.37300051 123.80078125 166.390625 C122.59268547 166.42159271 122.59268547 166.42159271 121.36018372 166.45318604 C117.51737222 166.45471285 115.48831403 166.29576761 112.13452148 164.2644043 C110.04685318 162.04970414 108.5417903 160.02377688 107.046875 157.37890625 C106.51819824 156.457146 105.98952148 155.53538574 105.44482422 154.58569336 C104.60588623 153.08921265 104.60588623 153.08921265 103.75 151.5625 C102.51896255 149.40843488 101.28715573 147.25480931 100.0546875 145.1015625 C99.40338867 143.95719727 98.75208984 142.81283203 98.08105469 141.63378906 C94.77451481 135.84211928 91.38253389 130.10015256 88.00109863 124.35202026 C78.87425536 108.83515 78.87425536 108.83515 75 102 C72.15452372 105.43099903 69.71935048 108.91896729 67.41796875 112.734375 C66.74024414 113.85448975 66.06251953 114.97460449 65.36425781 116.12866211 C65.00932251 116.7192038 64.65438721 117.30974548 64.28869629 117.91818237 C63.17233389 119.77522852 62.05103491 121.62921764 60.92871094 123.48266602 C57.1606641 129.71277357 53.42472569 135.96094806 49.72265625 142.23046875 C49.05274658 143.3606543 48.38283691 144.49083984 47.69262695 145.65527344 C46.42532159 147.79648914 45.1644275 149.94151625 43.91088867 152.09082031 C41.00135651 157.00389806 38.31111434 161.23170845 34 165 C33.67 165.33 33.34 165.66 33 166 C30.3337397 166.08855161 27.69352886 166.11524673 25.02734375 166.09765625 C24.22970108 166.0962413 23.43205841 166.09482635 22.61024475 166.09336853 C20.05262565 166.08775316 17.49509282 166.07519812 14.9375 166.0625 C13.20768355 166.05748698 11.47786574 166.05292373 9.74804688 166.04882812 C5.49866447 166.03777875 1.24934688 166.02050386 -3 166 C0.4347645 159.55907885 3.96537425 153.27074775 8 147.1875 C8.96307746 145.71669413 9.92527263 144.24531027 10.88671875 142.7734375 C11.39122559 142.00225586 11.89573242 141.23107422 12.41552734 140.43652344 C15.24692986 136.08253313 18.02834195 131.69679341 20.8125 127.3125 C21.39660645 126.39307617 21.98071289 125.47365234 22.58251953 124.52636719 C23.78023062 122.64102671 24.97782071 120.75560936 26.17529297 118.87011719 C28.02147791 115.96621697 29.87148984 113.06478932 31.72265625 110.1640625 C37.89416873 100.49004288 44.04167225 90.80718543 50 81 C46.06301867 73.30208121 41.53727293 66.16272816 36.703125 59.015625 C33.9343094 54.92067131 31.24126725 50.77925837 28.5625 46.625 C28.10528564 45.91649902 27.64807129 45.20799805 27.17700195 44.47802734 C26.24807405 43.03795282 25.31944511 41.59768541 24.39111328 40.15722656 C22.554098 37.30853104 20.71263019 34.46273171 18.87036133 31.61743164 C17.9617832 30.21353033 17.05405847 28.80907633 16.1472168 27.40405273 C13.74814276 23.68878708 11.33406366 19.98439342 8.8984375 16.29296875 C8.13950195 15.13667969 8.13950195 15.13667969 7.36523438 13.95703125 C6.3945567 12.47875149 5.41950674 11.00333053 4.43945312 9.53125 C4.00310547 8.86480469 3.56675781 8.19835937 3.1171875 7.51171875 C2.73159668 6.92865967 2.34600586 6.34560059 1.94873047 5.74487305 C0.91979113 3.85248255 0.43416748 2.10251223 0 0 Z " fill="#FFFFFF" transform="translate(114,26)"/>
<path d="M0 0 C34.98 0 69.96 0 106 0 C106 8.91 106 17.82 106 27 C82.57 27 59.14 27 35 27 C35 41.85 35 56.7 35 72 C54.8 72 74.6 72 95 72 C95 81.24 95 90.48 95 100 C75.2 100 55.4 100 35 100 C35 121.78 35 143.56 35 166 C23.45 166 11.9 166 0 166 C0 111.22 0 56.44 0 0 Z " fill="#FFFFFF" transform="translate(0,26)"/>
<path d="M0 0 C13.53 0 27.06 0 41 0 C41 62.7 41 125.4 41 190 C27.47 190 13.94 190 0 190 C0 127.3 0 64.6 0 0 Z " fill="#FFFFFF" transform="translate(629,2)"/>
<path d="M0 0 C46.2 0 92.4 0 140 0 C140 8.58 140 17.16 140 26 C93.8 26 47.6 26 0 26 C0 17.42 0 8.84 0 0 Z " fill="#3ABB9D" transform="translate(285,43)"/>
<path d="M0 0 C46.2 0 92.4 0 140 0 C140 17 140 17 137 23 C133.47030162 25.79819655 130.83618376 26.37346199 126.38749695 26.36076355 C125.26995529 26.36488754 124.15241364 26.36901154 123.00100708 26.3732605 C121.78468597 26.36247467 120.56836487 26.35168884 119.31518555 26.34057617 C118.0269841 26.34101425 116.73878265 26.34145233 115.4115448 26.34190369 C111.88703371 26.34276323 108.36282989 26.32514437 104.83839011 26.30418181 C101.15218911 26.28540807 97.46598081 26.28366403 93.77973938 26.28010559 C86.80289252 26.27078716 79.82618694 26.24617617 72.84940225 26.21605712 C64.90508014 26.18250679 56.96075123 26.16602552 49.0163759 26.15097082 C32.67748822 26.11962635 16.33879512 26.06461689 0 26 C0 17.42 0 8.84 0 0 Z " fill="#3ABB9D" transform="translate(285,84)"/>
<path d="M0 0 C16.97666063 -0.06774544 33.95320575 -0.12299831 50.92996407 -0.15543652 C58.81273364 -0.1708991 66.6954132 -0.19197694 74.578125 -0.22631836 C81.44946792 -0.25623941 88.32074565 -0.27557943 95.1921519 -0.28226548 C98.82983463 -0.28617318 102.46733086 -0.29534397 106.10495377 -0.31719017 C110.16787201 -0.34139215 114.23046692 -0.34196826 118.29345703 -0.34057617 C120.09851967 -0.35675491 120.09851967 -0.35675491 121.94004822 -0.3732605 C132.69633652 -0.33331564 132.69633652 -0.33331564 137 3 C140 9 140 9 140 26 C93.8 26 47.6 26 0 26 C0 17.42 0 8.84 0 0 Z " fill="#3ABB9D" transform="translate(285,2)"/>
<path d="M0 0 C20.46 0 40.92 0 62 0 C62 8.58 62 17.16 62 26 C41.54 26 21.08 26 0 26 C0 17.42 0 8.84 0 0 Z " fill="#4BBD95" transform="translate(285,125)"/>
<path d="M0 0 C20.46 0 40.92 0 62 0 C62 14.53846154 62 14.53846154 56.5625 20.8125 C52.67959502 24.12717498 50.06852762 25.25287135 44.95605469 25.22705078 C43.45495148 25.22682419 43.45495148 25.22682419 41.92352295 25.22659302 C40.85047913 25.21627045 39.7774353 25.20594788 38.671875 25.1953125 C37.56773254 25.1924826 36.46359009 25.18965271 35.32598877 25.18673706 C31.8005488 25.17554489 28.27536315 25.15044175 24.75 25.125 C22.35937867 25.11496897 19.96875336 25.10584333 17.578125 25.09765625 C11.71857326 25.07731058 5.85957122 25.03815929 0 25 C0 16.75 0 8.5 0 0 Z " fill="#4CBD94" transform="translate(285,166)"/>
<path d="M0 0 C28 0 28 0 37 4 C41.9392185 8.9392185 44.06198441 12.96494492 44.3125 19.875 C44.1607021 26.68566591 41.96007667 32.17045166 37 37 C29.00587324 43.01032626 18.38602074 41.26254603 9 41 C9 49.25 9 57.5 9 66 C6.03 66 3.06 66 0 66 C0 44.22 0 22.44 0 0 Z M9 8 C9 16.25 9 24.5 9 33 C11.68125 33.0825 14.3625 33.165 17.125 33.25 C17.95789551 33.28641602 18.79079102 33.32283203 19.64892578 33.36035156 C24.88911906 33.43787291 27.90642919 32.55854484 32 29 C34.91739964 24.80939994 34.65218785 19.90731587 34 15 C31.88984559 11.38259244 29.90272886 9.43184533 26 8 C23.07760366 7.76006843 20.17960436 7.81232577 17.25 7.875 C14.5275 7.91625 11.805 7.9575 9 8 Z " fill="#FFFFFF" transform="translate(567,254)"/>
<path d="M0 0 C2.97 0 5.94 0 9 0 C9 22.44 9 44.88 9 68 C7.02 68 5.04 68 3 68 C1.125 65.5 1.125 65.5 0 63 C-0.65742187 63.54140625 -0.65742187 63.54140625 -1.328125 64.09375 C-7.30735135 68.46879367 -12.72105376 69.10721999 -20 68 C-25.48612153 65.35490569 -28.8703447 61.65468995 -31.25 56.0625 C-33.28239057 47.6003647 -33.07361588 38.13254008 -29.40625 30.1953125 C-26.68609961 25.94885549 -22.88663525 21.97552298 -18.0234375 20.33203125 C-15.86758516 19.9782717 -13.80984088 19.79599665 -11.625 19.75 C-10.89539062 19.72421875 -10.16578125 19.6984375 -9.4140625 19.671875 C-7 20 -7 20 -1 23 C-0.67 15.41 -0.34 7.82 0 0 Z M-20.25 32.4375 C-23.85627713 37.71812008 -23.4999255 43.79916962 -23 50 C-21.96225271 53.97206723 -20.28978009 57.4253895 -17 60 C-13.89046621 61.5547669 -11.43733239 61.28644437 -8 61 C-4.89960457 59.24505919 -2.51174333 57.51174333 0 55 C0.27808217 52.47622345 0.27808217 52.47622345 0.1953125 49.5546875 C0.18886719 48.47832031 0.18242188 47.40195312 0.17578125 46.29296875 C0.15902344 45.16503906 0.14226562 44.03710938 0.125 42.875 C0.11597656 41.73933594 0.10695313 40.60367188 0.09765625 39.43359375 C0.07403098 36.62218701 0.04109013 33.81119702 0 31 C-1.09054687 30.34902344 -2.18109375 29.69804687 -3.3046875 29.02734375 C-3.91812012 28.66116943 -4.53155273 28.29499512 -5.16357422 27.91772461 C-11.28546409 24.8584074 -16.05207192 27.88974458 -20.25 32.4375 Z " fill="#FFFFFF" transform="translate(1192,252)"/>
<path d="M0 0 C2.5 1.6875 2.5 1.6875 4 3 C3.125 7.75 3.125 7.75 2 10 C-1.12743447 9.52614629 -3.47754641 8.7789137 -6.375 7.4375 C-11.60566067 5.36327249 -15.15508253 5.24836695 -20.375 7.375 C-23.08676342 8.73593741 -23.08676342 8.73593741 -24 11 C-24.52320745 15.80340949 -24.52320745 15.80340949 -22.5390625 20.0078125 C-19.01751202 22.77087518 -15.25681704 24.02440894 -11.0625 25.5 C-4.56053261 27.79851632 0.79597539 29.73196351 4.8125 35.6875 C6.83624681 41.33268848 6.64315853 46.00282351 4.8125 51.6875 C2.01085959 56.80773936 -0.9387201 61.44519155 -6.66015625 63.5234375 C-15.64169259 65.35273205 -24.03463925 64.92426043 -32.046875 60.38671875 C-33.91281884 59.06189863 -35.44718773 57.67566134 -37 56 C-36.3125 53.5625 -36.3125 53.5625 -35 51 C-32.75 49.9375 -32.75 49.9375 -30 50 C-26.875 51.875 -26.875 51.875 -24 54 C-18.75157984 55.74947339 -13.16229145 55.85590703 -8 53.8125 C-5.54415012 51.58688605 -4.73618667 50.23922137 -4 47 C-4.05853589 42.26621126 -4.05853589 42.26621126 -6.53125 38.46875 C-10.60957762 36.04240319 -15.11095354 34.82858388 -19.625 33.42578125 C-25.41140079 31.51401986 -29.7700409 29.20034476 -33.35546875 24.0546875 C-35.10734936 18.46990447 -34.67212052 12.0537016 -32.875 6.5625 C-24.73691099 -4.55955498 -11.84470502 -5.61064975 0 0 Z " fill="#FFFFFF" transform="translate(256,256)"/>
<path d="M0 0 C2.97 0 5.94 0 9 0 C9.33 8.25 9.66 16.5 10 25 C11.98 23.68 13.96 22.36 16 21 C21.2064736 19.2645088 26.14934089 19.33655617 31.3125 21.1875 C35.2448173 23.83952795 37.49898186 26.49694559 39 31 C39.08518867 33.80426452 39.1158852 36.5829635 39.09765625 39.38671875 C39.0962413 40.20372757 39.09482635 41.02073639 39.09336853 41.86250305 C39.08777294 44.47087268 39.07522129 47.07915634 39.0625 49.6875 C39.05748443 51.45637897 39.05292162 53.22525928 39.04882812 54.99414062 C39.03780496 59.32946019 39.02054338 63.66471552 39 68 C36.36 68 33.72 68 31 68 C30.98018066 67.12786865 30.96036133 66.2557373 30.93994141 65.35717773 C30.86142564 62.09356807 30.77472031 58.83038246 30.68261719 55.56713867 C30.64454707 54.15999602 30.60965755 52.75276331 30.578125 51.34545898 C30.5319922 49.31201177 30.47408432 47.27917293 30.4140625 45.24609375 C30.3826416 44.02591553 30.3512207 42.8057373 30.31884766 41.54858398 C29.88890573 36.76358711 29.41679275 32.41679275 25.9375 28.9375 C20.24820815 27.12176856 15.14624627 29.42687687 10 32 C9.67 43.88 9.34 55.76 9 68 C6.03 68 3.06 68 0 68 C0 45.56 0 23.12 0 0 Z " fill="#FFFFFF" transform="translate(68,252)"/>
<path d="M0 0 C5.29085113 4.82124896 8.63242682 9.39778286 9.37109375 16.63671875 C9.62438636 24.97486545 9.3838647 32.15269078 4 39 C-2.26996899 44.89953319 -8.18820155 45.34964591 -16.47265625 45.28125 C-22.46030244 44.80382971 -26.11640728 42.88359272 -30.3125 38.6875 C-35.78012719 29.97979743 -36.2261128 21.7052775 -34.6015625 11.49609375 C-32.88702937 5.80696108 -28.77372498 2.3077058 -24 -1 C-16.81401346 -4.59299327 -6.86990319 -4.29546742 0 0 Z M-22 7 C-26.54185022 12.16420287 -26.54135792 18.42024145 -26.328125 25 C-25.83351059 29.5221889 -24.35259344 32.36561626 -21.5 35.8125 C-17.89175856 38.66902448 -13.37754321 38.47973076 -9 38 C-5.3019151 36.35640671 -3.09565354 34.45782834 -1 31 C1.03730702 24.54615329 1.1453502 16.67481306 -1.5625 10.4375 C-3.94264731 6.36329767 -6.53065414 5.27695596 -11 4 C-15.31233192 4 -18.44980522 4.57828941 -22 7 Z " fill="#FFFFFF" transform="translate(948,275)"/>
<path d="M0 0 C4.44151689 4.14541577 7.05061165 8.94522738 8 15 C7.67 17.31 7.34 19.62 7 22 C-3.56 22 -14.12 22 -25 22 C-23.07958302 30.64254135 -23.07958302 30.64254135 -18 36 C-12.75953369 37.7468221 -7.78863101 37.82552201 -2.75 35.5 C-1.8425 35.005 -0.935 34.51 0 34 C2.875 33.8125 2.875 33.8125 5 34 C5.66 35.65 6.32 37.3 7 39 C5.73168307 39.81642254 4.46024069 40.62799105 3.1875 41.4375 C2.12595703 42.11619141 2.12595703 42.11619141 1.04296875 42.80859375 C-4.73983895 46.18097683 -11.52892984 45.50936362 -18 45 C-23.89964235 43.40179967 -27.63445593 40.0963953 -31 35 C-34.50396421 27.76600937 -35.23400587 20.0976195 -33.34375 12.2890625 C-31.25664651 6.2976361 -28.39002013 2.3805828 -23 -1 C-15.70377695 -4.48949798 -6.99715021 -4.04211741 0 0 Z M-22 8 C-24.19226008 11.78633595 -24.19226008 11.78633595 -25 16 C-17.08 16 -9.16 16 -1 16 C-1.31716298 9.24493324 -1.31716298 9.24493324 -4.5625 6.0625 C-7.65424318 3.82339582 -10.26357683 3.31133541 -14.04296875 3.5859375 C-17.45849181 4.3085831 -19.43268985 5.6715094 -22 8 Z " fill="#FFFFFF" transform="translate(410,275)"/>
<path d="M0 0 C4.7412708 3.35408677 7.53393431 7.56049684 8.7890625 13.265625 C8.97950292 15.9869183 8.92829092 18.52746613 8.7890625 21.265625 C7.7890625 22.265625 7.7890625 22.265625 4.73803711 22.37915039 C3.38914979 22.37899134 2.04025636 22.37330112 0.69140625 22.36328125 C-0.37188148 22.36115883 -0.37188148 22.36115883 -1.45664978 22.35899353 C-3.72895462 22.35337943 -6.00116225 22.34082463 -8.2734375 22.328125 C-9.81054546 22.32311181 -11.34765495 22.31854859 -12.88476562 22.31445312 C-16.66019392 22.30340542 -20.43554921 22.28613141 -24.2109375 22.265625 C-23.60976355 24.04620558 -22.99682205 25.82281615 -22.37890625 27.59765625 C-22.03883545 28.58741455 -21.69876465 29.57717285 -21.34838867 30.59692383 C-20.30445331 33.50646712 -20.30445331 33.50646712 -17.5234375 35.953125 C-12.73760945 37.84939649 -8.1721421 38.3531732 -3.25390625 36.546875 C-2.66222656 36.2684375 -2.07054687 35.99 -1.4609375 35.703125 C1.98983219 34.17682302 3.28364317 34.09715189 6.7890625 35.265625 C7.2840625 37.245625 7.2840625 37.245625 7.7890625 39.265625 C1.1070224 45.16154274 -5.12686347 45.72423426 -13.79296875 45.578125 C-19.92644539 45.01734999 -23.99773133 42.88759413 -28.0859375 38.328125 C-32.75121398 31.6046383 -33.74923314 24.07722425 -33 15.98828125 C-31.80921832 10.31521758 -29.11196578 4.52270305 -24.46875 0.91015625 C-16.67404501 -3.72317697 -7.98811859 -4.51917466 0 0 Z M-20.2109375 7.265625 C-22.74900447 10.67888748 -23.2109375 11.90474844 -23.2109375 16.265625 C-15.2909375 16.265625 -7.3709375 16.265625 0.7890625 16.265625 C-0.24674926 10.05075443 -0.71339122 9.10499378 -5.2109375 5.265625 C-10.28658413 2.72780169 -15.9843883 3.76362709 -20.2109375 7.265625 Z " fill="#FFFFFF" transform="translate(160.2109375,274.734375)"/>
<path d="M0 0 C4.65748818 3.61888454 6.84420016 8.57250261 7.5703125 14.35546875 C7.6171875 16.8046875 7.6171875 16.8046875 7.2421875 20.7421875 C6.2421875 21.7421875 6.2421875 21.7421875 3.28295898 21.85571289 C1.98946533 21.85047607 0.69597168 21.84523926 -0.63671875 21.83984375 C-1.66671242 21.83772133 -1.66671242 21.83772133 -2.71751404 21.83555603 C-4.91849051 21.82994229 -7.11936659 21.81738757 -9.3203125 21.8046875 C-10.80924333 21.79967426 -12.29817574 21.79511105 -13.78710938 21.79101562 C-17.44404325 21.77996843 -21.10091808 21.76269463 -24.7578125 21.7421875 C-24.48769269 23.18182047 -24.20374633 24.61886331 -23.9140625 26.0546875 C-23.75744141 26.85519531 -23.60082031 27.65570313 -23.43945312 28.48046875 C-22.42400002 31.84979452 -20.4555703 33.58398126 -17.7578125 35.7421875 C-14.30844832 37.46686959 -10.53692026 37.12071882 -6.7578125 36.7421875 C-4.7903828 36.07570706 -4.7903828 36.07570706 -3.0078125 35.1796875 C0.44295719 33.65338552 1.73676817 33.57371439 5.2421875 34.7421875 C5.7371875 36.7221875 5.7371875 36.7221875 6.2421875 38.7421875 C-0.43663474 44.63526595 -6.67798682 45.21628401 -15.34375 45.04296875 C-19.95343294 44.63685252 -23.24857611 43.81989366 -26.7578125 40.7421875 C-34.0074668 31.91513589 -34.51668647 23.74586 -33.7578125 12.7421875 C-32.20283385 6.45670149 -28.05174138 2.27147342 -22.7578125 -1.2578125 C-15.03217009 -4.95268496 -7.36648674 -4.06189456 0 0 Z M-20.7578125 6.7421875 C-21.6240625 7.391875 -21.6240625 7.391875 -22.5078125 8.0546875 C-24.30370981 10.21158478 -24.30370981 10.21158478 -24.7578125 15.7421875 C-16.8378125 15.7421875 -8.9178125 15.7421875 -0.7578125 15.7421875 C-1.70322747 10.06969766 -1.99979695 8.61073292 -5.7578125 4.7421875 C-11.4794317 2.8349811 -15.90208659 3.10039307 -20.7578125 6.7421875 Z " fill="#FFFFFF" transform="translate(1255.7578125,275.2578125)"/>
<path d="M0 0 C4.29816086 3.05000498 7.47270301 7.12376235 8.7890625 12.26953125 C8.98539166 15.28163391 9.05637648 18.26069479 8.7890625 21.26953125 C7.7890625 22.26953125 7.7890625 22.26953125 4.82983398 22.38305664 C3.53634033 22.37781982 2.24284668 22.37258301 0.91015625 22.3671875 C-0.11983742 22.36506508 -0.11983742 22.36506508 -1.17063904 22.36289978 C-3.37161551 22.35728604 -5.57249159 22.34473132 -7.7734375 22.33203125 C-9.26236833 22.32701801 -10.75130074 22.3224548 -12.24023438 22.31835938 C-15.89716825 22.30731218 -19.55404308 22.29003838 -23.2109375 22.26953125 C-22.94081769 23.70916422 -22.65687133 25.14620706 -22.3671875 26.58203125 C-22.21056641 27.38253906 -22.05394531 28.18304688 -21.89257812 29.0078125 C-20.87712502 32.37713827 -18.9086953 34.11132501 -16.2109375 36.26953125 C-12.76157332 37.99421334 -8.99004526 37.64806257 -5.2109375 37.26953125 C-3.2435078 36.60305081 -3.2435078 36.60305081 -1.4609375 35.70703125 C1.98983219 34.18072927 3.28364317 34.10105814 6.7890625 35.26953125 C7.2840625 37.24953125 7.2840625 37.24953125 7.7890625 39.26953125 C1.11024026 45.1626097 -5.13111182 45.74362776 -13.796875 45.5703125 C-18.40655794 45.16419627 -21.70170111 44.34723741 -25.2109375 41.26953125 C-32.4605918 32.44247964 -32.96981147 24.27320375 -32.2109375 13.26953125 C-30.65595885 6.98404524 -26.50486638 2.79881717 -21.2109375 -0.73046875 C-14.16238551 -4.10151536 -6.76017669 -3.81101594 0 0 Z M-19.2109375 7.26953125 C-20.0771875 7.91921875 -20.0771875 7.91921875 -20.9609375 8.58203125 C-22.75683481 10.73892853 -22.75683481 10.73892853 -23.2109375 16.26953125 C-15.2909375 16.26953125 -7.3709375 16.26953125 0.7890625 16.26953125 C-0.15635247 10.59704141 -0.45292195 9.13807667 -4.2109375 5.26953125 C-9.9325567 3.36232485 -14.35521159 3.62773682 -19.2109375 7.26953125 Z " fill="#FFFFFF" transform="translate(802.2109375,274.73046875)"/>
<path d="M0 0 C17.16 0 34.32 0 52 0 C52 2.64 52 5.28 52 8 C45.07 8 38.14 8 31 8 C31 27.14 31 46.28 31 66 C27.7 66 24.4 66 21 66 C21 46.86 21 27.72 21 8 C14.07 8 7.14 8 0 8 C0 5.36 0 2.72 0 0 Z " fill="#FFFFFF" transform="translate(1003,254)"/>
<path d="M0 0 C4.43767875 4.30503074 5.92403627 7.5462899 6.11352539 13.66699219 C6.11336795 15.1269627 6.10777139 16.58693952 6.09765625 18.046875 C6.0962413 18.81807678 6.09482635 19.58927856 6.09336853 20.3838501 C6.08778534 22.83927338 6.07523595 25.29460442 6.0625 27.75 C6.05748283 29.41796743 6.0529203 31.08593629 6.04882812 32.75390625 C6.03782141 36.83597287 6.02056836 40.91797081 6 45 C3.1171875 45.15625 3.1171875 45.15625 0 45 C-1.875 42.5 -1.875 42.5 -3 40 C-3.763125 40.639375 -4.52625 41.27875 -5.3125 41.9375 C-10.79278458 46.1432998 -17.35818156 45.74975128 -24 45 C-27.28841409 43.40055358 -29.34426844 41.31146313 -31 38 C-31.62662111 34.10543081 -31.77206016 30.54117352 -29.9765625 26.95703125 C-26.19079925 22.05227168 -21.90681891 20.37752307 -16 19 C-14.7315625 18.6596875 -14.7315625 18.6596875 -13.4375 18.3125 C-9.94056606 17.86417514 -6.52468776 17.94025953 -3 18 C-3.71141528 11.32055797 -3.71141528 11.32055797 -7.0625 5.75 C-11.33404121 4.65939373 -14.88770329 5.5445242 -19 7 C-19.99 7.66 -20.98 8.32 -22 9 C-24.6875 9.125 -24.6875 9.125 -27 9 C-27.66 7.35 -28.32 5.7 -29 4 C-27.58833114 3.01364163 -26.17043816 2.03618745 -24.75 1.0625 C-23.96109375 0.51722656 -23.1721875 -0.02804687 -22.359375 -0.58984375 C-15.69043466 -4.57575014 -6.34841308 -4.4291254 0 0 Z M-22 29 C-23.0146239 30.8064655 -23.0146239 30.8064655 -23 33 C-21.23136411 36.69759178 -21.23136411 36.69759178 -18 39 C-13.46694795 39.12692546 -9.22333805 38.62026978 -5.4375 36 C-2.44759783 32.3201204 -2.47518328 30.37411074 -2.7890625 25.79296875 C-2.85867188 25.20128906 -2.92828125 24.60960937 -3 24 C-9.71593812 23.46979436 -16.41631348 25.27754232 -22 29 Z " fill="#FFFFFF" transform="translate(1134,275)"/>
<path d="M0 0 C4.73575479 3.26992593 6.90212359 6.5201848 8.22802734 12.13061523 C9.03511154 17.58314902 8.87959702 23.10551302 8.83081055 28.60571289 C8.81233638 30.76916053 8.81030277 32.93218414 8.81054688 35.09570312 C8.77276543 45.66473457 8.77276543 45.66473457 7.625 46.8125 C5.25 47.1875 5.25 47.1875 2.625 46.8125 C0.8125 44.3125 0.8125 44.3125 -0.375 41.8125 C-0.80167969 42.1734375 -1.22835938 42.534375 -1.66796875 42.90625 C-7.1222947 46.95482184 -11.62938699 47.3453921 -18.32421875 47.28125 C-21.71666034 46.76000417 -23.63180988 45.8494748 -26.375 43.8125 C-28.76098167 40.23352749 -29.16079503 38.09659945 -29.375 33.8125 C-28.19964349 29.73332153 -27.06011192 27.444911 -23.9375 24.5625 C-16.45313732 20.88597096 -8.67746266 19.33351177 -0.375 19.8125 C-0.65859887 18.3733866 -0.95221399 16.93624482 -1.25 15.5 C-1.41242188 14.69949219 -1.57484375 13.89898437 -1.7421875 13.07421875 C-2.31978999 10.55948882 -2.31978999 10.55948882 -4.375 7.8125 C-8.72181847 6.18244307 -11.35257309 7.05312015 -15.4375 8.8125 C-16.25347656 9.204375 -17.06945312 9.59625 -17.91015625 10 C-20.81035976 10.95601003 -22.47502301 10.63958791 -25.375 9.8125 C-25.705 8.4925 -26.035 7.1725 -26.375 5.8125 C-18.91378217 -0.94922866 -9.65092821 -3.39569696 0 0 Z M-18.5 29.5 C-20.75550535 31.78560221 -20.75550535 31.78560221 -20.375 35.4375 C-19.69242476 39.06323889 -19.69242476 39.06323889 -16.375 40.8125 C-9.96878871 41.6917839 -6.33528833 39.50247059 -1.375 35.8125 C-0.14232652 34.80413938 -0.14232652 34.80413938 -0.27734375 32.74609375 C-0.28894531 31.92238281 -0.30054688 31.09867187 -0.3125 30.25 C-0.32152344 29.42371094 -0.33054687 28.59742188 -0.33984375 27.74609375 C-0.35144531 27.10800781 -0.36304688 26.46992188 -0.375 25.8125 C-6.86621415 25.47961722 -12.77048884 26.40606397 -18.5 29.5 Z " fill="#FFFFFF" transform="translate(307.375,273.1875)"/>
<path d="M0 0 C3.58339063 2.79724412 5.43833434 7.08477208 6.16314697 11.52331543 C6.27838652 13.71960074 6.2712128 15.87843231 6.21038818 18.07678223 C6.20472839 18.86452026 6.1990686 19.6522583 6.1932373 20.46386719 C6.17106221 22.95007257 6.12090655 25.43477151 6.06976318 27.92053223 C6.04967358 29.6184279 6.03142715 31.31634644 6.01507568 33.01428223 C5.97126008 37.15026862 5.90236924 41.28514613 5.81976318 45.42053223 C3.83976318 45.42053223 1.85976318 45.42053223 -0.18023682 45.42053223 C-0.84023682 44.10053223 -1.50023682 42.78053223 -2.18023682 41.42053223 C-2.73711182 41.70928223 -3.29398682 41.99803223 -3.86773682 42.29553223 C-8.45578656 44.52755642 -12.02125674 45.71329123 -17.18023682 45.73303223 C-18.19086182 45.74979004 -19.20148682 45.76654785 -20.24273682 45.78381348 C-24.61969289 45.24251439 -27.24737371 43.57856918 -29.99273682 40.17053223 C-31.87437404 35.81305655 -31.86788272 32.22560272 -30.18023682 27.79553223 C-24.88691029 21.50970698 -18.16118099 19.31305273 -10.18023682 18.42053223 C-7.81528051 18.29827958 -5.54974319 18.31751021 -3.18023682 18.42053223 C-3.84023682 14.46053223 -4.50023682 10.50053223 -5.18023682 6.42053223 C-11.64977941 5.14972922 -15.17387632 5.68078884 -21.18023682 8.42053223 C-21.51023682 8.75053223 -21.84023682 9.08053223 -22.18023682 9.42053223 C-23.84640797 9.46117055 -25.51411776 9.46325323 -27.18023682 9.42053223 C-27.84023682 7.77053223 -28.50023682 6.12053223 -29.18023682 4.42053223 C-27.76856796 3.43417386 -26.35067497 2.45671967 -24.93023682 1.48303223 C-24.14133057 0.93775879 -23.35242432 0.39248535 -22.53961182 -0.16931152 C-15.88533301 -4.14645498 -6.62899298 -3.96390337 0 0 Z M-20.95367432 28.83850098 C-22.44169341 30.48971619 -22.44169341 30.48971619 -22.61773682 33.42053223 C-22.42328746 36.41261579 -22.42328746 36.41261579 -20.74273682 38.35803223 C-15.54516694 40.51312217 -10.66075732 39.01793524 -5.61773682 36.98303223 C-2.76314066 33.98204652 -2.82218423 33.16447354 -2.80523682 29.17053223 C-2.90145703 27.58518964 -3.01742344 26.00042502 -3.18023682 24.42053223 C-9.08507839 23.95436052 -16.21417284 25.04898768 -20.95367432 28.83850098 Z " fill="#FFFFFF" transform="translate(690.1802368164063,274.5794677734375)"/>
<path d="M0 0 C16.83 0 33.66 0 51 0 C51 2.64 51 5.28 51 8 C44.07 8 37.14 8 30 8 C30 27.14 30 46.28 30 66 C27.03 66 24.06 66 21 66 C21 46.86 21 27.72 21 8 C14.07 8 7.14 8 0 8 C0 5.36 0 2.72 0 0 Z " fill="#FFFFFF" transform="translate(857,254)"/>
<path d="M0 0 C16.83 0 33.66 0 51 0 C51 2.64 51 5.28 51 8 C44.07 8 37.14 8 30 8 C30 27.14 30 46.28 30 66 C27.03 66 24.06 66 21 66 C21 46.86 21 27.72 21 8 C14.07 8 7.14 8 0 8 C0 5.36 0 2.72 0 0 Z " fill="#FFFFFF" transform="translate(0,254)"/>
<path d="M0 0 C1.4609375 1.16796875 1.4609375 1.16796875 2.4609375 4.16796875 C1.8009375 5.15796875 1.1409375 6.14796875 0.4609375 7.16796875 C-2.66196885 6.68218332 -5.53486609 6.16936755 -8.5390625 5.16796875 C-13.51276673 4.76897256 -13.51276673 4.76897256 -17.9765625 6.66796875 C-19.79966334 8.06691331 -19.79966334 8.06691331 -19.6015625 10.41796875 C-18.83781967 13.22524204 -18.83781967 13.22524204 -16.8203125 14.21484375 C-14.41129857 15.24970184 -11.98010828 16.21119522 -9.5390625 17.16796875 C-0.47834733 21.11817983 -0.47834733 21.11817983 2.5859375 24.54296875 C4.18618066 29.34369822 4.1508217 33.3215747 1.8984375 37.85546875 C-0.5328481 41.56505915 -3.24495512 43.94418435 -7.5390625 45.16796875 C-15.82333098 46.12346702 -22.52406037 45.84463684 -29.5390625 41.16796875 C-29.8690625 40.50796875 -30.1990625 39.84796875 -30.5390625 39.16796875 C-29.6015625 37.04296875 -29.6015625 37.04296875 -28.5390625 35.16796875 C-22.07003595 35.9290307 -22.07003595 35.9290307 -19.0390625 37.29296875 C-15.57647086 38.50487582 -13.07926724 37.95468091 -9.5390625 37.16796875 C-8.5490625 36.50796875 -7.5590625 35.84796875 -6.5390625 35.16796875 C-5.87225882 32.21076247 -5.87225882 32.21076247 -6.5390625 29.16796875 C-11.04465241 25.89042176 -16.2551993 24.42051879 -21.48046875 22.64453125 C-24.99211675 20.9492529 -26.50274215 19.47393728 -28.5390625 16.16796875 C-29.58175367 11.3301884 -29.01011455 7.20428326 -26.9765625 2.73046875 C-19.73078275 -4.88688945 -8.89747898 -4.73926942 0 0 Z " fill="#FFFFFF" transform="translate(464.5390625,274.83203125)"/>
<path d="M0 0 C0.98484375 0.01804688 1.9696875 0.03609375 2.984375 0.0546875 C4.10585938 0.08949219 4.10585938 0.08949219 5.25 0.125 C6.375 4.875 6.375 4.875 5.25 7.125 C2.71188859 7.68902476 0.17362155 8.01878356 -2.40234375 8.3671875 C-4.86314773 8.90259962 -4.86314773 8.90259962 -6.02734375 10.9296875 C-6.74754262 13.11753487 -7.1460751 15.08575098 -7.375 17.375 C-7.49875 18.6125 -7.6225 19.85 -7.75 21.125 C-3.46 21.125 0.83 21.125 5.25 21.125 C5.25 23.105 5.25 25.085 5.25 27.125 C0.96 27.125 -3.33 27.125 -7.75 27.125 C-7.75 40.325 -7.75 53.525 -7.75 67.125 C-10.72 67.125 -13.69 67.125 -16.75 67.125 C-16.75 53.925 -16.75 40.725 -16.75 27.125 C-18.73 27.125 -20.71 27.125 -22.75 27.125 C-23.75 26.125 -23.75 26.125 -23.8125 23.5625 C-23.791875 22.758125 -23.77125 21.95375 -23.75 21.125 C-21.44 21.125 -19.13 21.125 -16.75 21.125 C-16.79125 20.114375 -16.8325 19.10375 -16.875 18.0625 C-16.69794552 12.48528404 -16.02546911 8.63542394 -12.375 4.3125 C-8.15243313 0.79369428 -5.52064999 -0.13144405 0 0 Z " fill="#FFFFFF" transform="translate(356.75,252.875)"/>
<path d="M0 0 C2.31 0 4.62 0 7 0 C7 5.28 7 10.56 7 16 C11.29 16 15.58 16 20 16 C20 17.98 20 19.96 20 22 C15.71 22 11.42 22 7 22 C7.495 37.345 7.495 37.345 8 53 C12.49202386 53.89840477 14.68380697 53.90338924 19 53 C19.66 54.98 20.32 56.96 21 59 C15.56805279 62.52342522 10.28556266 62.88973718 4 62 C0.99802536 60.19881522 -0.45166366 59.09667268 -2 56 C-2.08658569 53.44637396 -2.11562516 50.9204558 -2.09765625 48.3671875 C-2.0962413 47.61535187 -2.09482635 46.86351624 -2.09336853 46.08889771 C-2.08776465 43.6842249 -2.07521157 41.27964473 -2.0625 38.875 C-2.0574855 37.24609509 -2.0529225 35.61718873 -2.04882812 33.98828125 C-2.03779397 29.99215173 -2.02052679 25.99609158 -2 22 C-4.31 22 -6.62 22 -9 22 C-9.38218767 20.34385343 -9.71395102 18.67542976 -10 17 C-9.67 16.67 -9.34 16.34 -9 16 C-6.69 16 -4.38 16 -2 16 C-1.34 10.72 -0.68 5.44 0 0 Z " fill="#FFFFFF" transform="translate(493,258)"/>
<path d="M0 0 C1.71484375 1.265625 1.71484375 1.265625 2.5859375 3.21875 C2.71484375 5.265625 2.71484375 5.265625 0.71484375 8.265625 C-1.94466095 7.80970991 -4.16034415 7.3263444 -6.59765625 6.140625 C-10.38053293 4.90899073 -13.49277098 5.08338344 -17.28515625 6.265625 C-21.3930982 9.39123301 -23.20156309 12.24169307 -24.28515625 17.265625 C-24.81446322 23.61730867 -23.99194403 29.43562056 -21.28515625 35.265625 C-17.50577258 38.15574192 -11.90388828 37.85560902 -7.28515625 37.265625 C-5.59523646 36.3054433 -3.92306337 35.31206566 -2.28515625 34.265625 C0.52734375 34.578125 0.52734375 34.578125 2.71484375 35.265625 C3.20984375 37.245625 3.20984375 37.245625 3.71484375 39.265625 C2.61416379 40.08284217 1.50914644 40.89421951 0.40234375 41.703125 C-0.21253906 42.15558594 -0.82742188 42.60804688 -1.4609375 43.07421875 C-6.69932373 46.4954346 -13.29572433 45.76179096 -19.28515625 45.265625 C-24.80972169 43.80763158 -28.11365043 40.91029443 -31.27734375 36.2421875 C-35.10549319 28.7342665 -35.49676583 20.5691376 -33.6328125 12.41015625 C-31.12977641 5.30926846 -27.19091532 1.17510721 -20.47265625 -2.109375 C-12.95453298 -3.58351682 -7.01953418 -3.10882709 0 0 Z " fill="#FFFFFF" transform="translate(750.28515625,274.734375)"/>
<path d="M0 0 C2.97 0 5.94 0 9 0 C9 22.44 9 44.88 9 68 C6.03 68 3.06 68 0 68 C0 45.56 0 23.12 0 0 Z " fill="#FFFFFF" transform="translate(630,252)"/>
<path d="M0 0 C-0.33 2.64 -0.66 5.28 -1 8 C-1.66386719 8.01417969 -2.32773438 8.02835937 -3.01171875 8.04296875 C-9.00119647 8.36090797 -9.00119647 8.36090797 -14.0625 11.4375 C-17.13921066 15.50669797 -17.17131668 17.87770057 -17.31640625 22.9765625 C-17.33718735 23.66181 -17.35796844 24.3470575 -17.37937927 25.05307007 C-17.44480185 27.24361069 -17.50372554 29.43427189 -17.5625 31.625 C-17.60569218 33.1093875 -17.6493067 34.59376278 -17.69335938 36.078125 C-17.80047553 39.71862084 -17.90176362 43.35925251 -18 47 C-20.97 47 -23.94 47 -27 47 C-27 31.49 -27 15.98 -27 0 C-24.69 0 -22.38 0 -20 0 C-19.34 1.98 -18.68 3.96 -18 6 C-17.13375 4.824375 -17.13375 4.824375 -16.25 3.625 C-12.13264041 -1.17858619 -6.03817924 -3.01908962 0 0 Z " fill="#FFFFFF" transform="translate(1090,273)"/>
</svg>
